<svg width="24" height="20" viewBox="0 0 24 20" version="1.1" xmlns="http://www.w3.org/2000/svg" xmlns:xlink="http://www.w3.org/1999/xlink">
<title>twitter</title>
<desc>Created using Figma</desc>
<g id="Canvas" transform="translate(-1463 -1481)">
<g id="twitter">
<g id="Vector">
<use xlink:href="#path0_stroke" transform="translate(1464 1482)" fill="#868686"/>
</g>
</g>
</g>
<defs>
<path id="path0_stroke" d="M 18.86 1.54006L 18.1054 2.19629C 18.3636 2.49309 18.7717 2.611 19.1483 2.49759L 18.86 1.54006ZM 11 4.54006L 12.0001 4.54006L 11.9999 4.52665L 11 4.54006ZM 11 5.54006L 11.0259 6.53972C 11.5679 6.52567 12 6.08224 12 5.54006L 11 5.54006ZM 2 1.01006L 1.10557 0.562842C 0.941204 0.891579 0.970415 1.28399 1.18164 1.58477L 2 1.01006ZM 7 14.0101L 7.56163 14.8374C 7.86205 14.6335 8.02833 14.2828 7.99604 13.9211C 7.96374 13.5594 7.73794 13.2437 7.40614 13.0962L 7 14.0101ZM 2.22045e-15 16.0101L 0.0397447 15.0108C -0.422977 14.9924 -0.837803 15.2941 -0.962851 15.74C -1.0879 16.1859 -0.890454 16.6593 -0.485643 16.8842L 2.22045e-15 16.0101ZM 20 4.51006L 21 4.51006L 21 4.50675L 20 4.51006ZM 19.92 3.68006L 19.2178 2.96805C 18.9802 3.20243 18.8751 3.53995 18.9378 3.86781L 19.92 3.68006ZM 21.4236 -0.807108C 20.5335 -0.175314 19.6177 0.270907 18.5717 0.582526L 19.1483 2.49759C 20.3465 2.13342 21.5512 1.54638 22.5764 0.827219L 21.4236 -0.807108ZM 19.6146 0.883818C 18.9039 0.084354 17.8446 -0.565234 16.8098 -0.836112L 16.3243 1.10408C 17.0701 1.27873 17.6116 1.61078 18.1054 2.19629L 19.6146 0.883818ZM 16.8098 -0.836112C 15.7693 -1.08449 14.5289 -1.01033 13.5255 -0.639753L 14.2387 1.22877C 14.9501 0.944829 15.5841 0.906919 16.3243 1.10408L 16.8098 -0.836112ZM 13.5255 -0.639753C 12.5303 -0.247508 11.556 0.52367 10.9456 1.40211L 12.6004 2.52543C 13.0209 1.88524 13.519 1.49104 14.2387 1.22877L 13.5255 -0.639753ZM 10.9456 1.40211C 10.3545 2.29359 9.99735 3.4838 10.0001 4.55346L 11.9999 4.52665C 11.978 3.76099 12.1606 3.15259 12.6004 2.52543L 10.9456 1.40211ZM 10 4.54006L 10 5.54006L 12 5.54006L 12 4.54006L 10 4.54006ZM 10.9741 4.54039C 9.33962 4.59034 7.83783 4.2542 6.3806 3.51227L 5.48141 5.29873C 7.16472 6.13753 9.14565 6.58091 11.0259 6.53972L 10.9741 4.54039ZM 6.3806 3.51227C 4.91658 2.78384 3.75194 1.77787 2.81836 0.435345L 1.18164 1.58477C 2.26869 3.11951 3.80491 4.44643 5.48141 5.29873L 6.3806 3.51227ZM 2 1.01006C 1.08619 0.603917 1.08597 0.604399 1.08575 0.604914C 1.08565 0.605132 1.0854 0.605684 1.08521 0.606121C 1.08496 0.606695 1.08438 0.60801 1.08387 0.609159C 1.08313 0.610858 1.08161 0.614325 1.08013 0.617721C 1.0777 0.623301 1.07328 0.633547 1.06856 0.644647C 1.06017 0.66438 1.04618 0.697827 1.03044 0.736637C 1.00109 0.809147 0.955655 0.925492 0.905278 1.06459C 0.808754 1.33186 0.67338 1.74374 0.547478 2.22842C 0.303883 3.17351 0.0645416 4.57119 0.126031 6.05546C 0.265712 9.12845 1.69981 12.7487 6.59386 14.9239L 7.40614 13.0962C 3.30019 11.2714 2.23429 8.39167 2.12397 5.96465C 2.06046 4.69892 2.25862 3.59661 2.48377 2.72919C 2.59224 2.30762 2.69906 1.98512 2.78613 1.74459C 2.82755 1.62978 2.85927 1.54886 2.88411 1.48758C 2.89547 1.45949 2.90284 1.44191 2.90904 1.42734C 2.91161 1.42129 2.91279 1.41857 2.91414 1.41547C 2.91455 1.41452 2.91489 1.41375 2.91468 1.41423C 2.9147 1.41418 2.91441 1.41484 2.91442 1.41481C 2.91435 1.41498 2.9142 1.41532 2.91416 1.4154C 2.91399 1.41578 2.91381 1.41619 2 1.01006ZM 6.43837 13.1827C 4.51701 14.5021 2.36817 15.1161 0.0397447 15.0108L -0.0397447 17.0093C 2.60615 17.1019 5.36405 16.3139 7.56163 14.8374L 6.43837 13.1827ZM -0.485643 16.8842C 4.29087 19.5378 9.65092 19.5626 13.8448 17.3303C 18.0631 15.0851 21 10.61 21 4.51006L 19 4.51006C 19 9.91012 16.4369 13.685 12.9052 15.5648C 9.34908 17.4576 4.70913 17.4823 0.485643 15.1359L -0.485643 16.8842ZM 21 4.50675C 20.9978 4.18183 20.9622 3.81165 20.9022 3.49231L 18.9378 3.86781C 18.9824 4.09565 19.0003 4.28119 19 4.51336L 21 4.50675ZM 20.6222 4.39206C 21.7343 3.2819 22.5905 1.77113 22.9716 0.246674L 21.0284 -0.226562C 20.7311 1.0344 20.1469 2.06519 19.2178 2.96805L 20.6222 4.39206Z"/>
</defs>
</svg>
